<svg width="295" height="68" viewBox="0 0 295 68" fill="none" xmlns="http://www.w3.org/2000/svg">
<path d="M32.8249 1.50148C31.3983 2.59766 30.7269 3.18792 30.7869 3.28428C31.0626 3.77817 46.7197 25.1357 46.7917 25.1477C46.8756 25.1477 50.5921 22.3771 50.9997 22.0037C51.0836 21.9314 36.0499 1.15215 35.1507 0.104151C34.9469 -0.124723 34.911 -0.100632 32.8249 1.50148Z" fill="#3C00A4"/>
<path d="M23.2939 10.7288L21.6035 12.8007L21.9152 13.1259C22.3948 13.5957 42.092 30.3396 42.2479 30.3998C42.3798 30.448 45.5927 26.5933 45.6407 26.3162C45.6646 26.2078 25.344 8.78936 25.0682 8.68095C25.0323 8.65686 24.229 9.5844 23.2939 10.7288Z" fill="#3C00A4"/>
<path d="M15.9572 22.5338C15.3578 23.8589 14.8783 25.0033 14.9022 25.0635C14.9382 25.196 39.2031 36.7481 39.2751 36.6758C39.359 36.5915 41.481 31.8936 41.481 31.7972C41.481 31.737 18.0672 20.5101 17.252 20.1849C17.0842 20.1126 16.8684 20.486 15.9572 22.5338Z" fill="#3C00A4"/>
<path d="M12.4321 32.7003C12.3362 32.8689 11.3532 37.9162 11.4011 37.9643C11.509 38.0728 37.6561 43.6018 37.7281 43.5296C37.86 43.3971 38.855 38.3619 38.7591 38.2775C38.6752 38.2053 12.7918 32.6159 12.564 32.6159C12.5161 32.6159 12.4561 32.6521 12.4321 32.7003Z" fill="#3C00A4"/>
<path d="M0 50.5044V61.5265H24.2769H48.5538V50.5044V39.4824H45.8564H43.159V47.7339V55.9853H24.2769H5.39487V47.7339V39.4824H2.69744H0V50.5044Z" fill="#BCBBBC"/>
<path d="M10.79 47.7338V50.4441H24.2772H37.7644V47.7338V45.0234H24.2772H10.79V47.7338Z" fill="#3C00A4"/>
<path d="M72.1729 33.1378V35.0714H67.1631V51.1554C67.1631 54.0558 69.0088 55.2423 71.0742 55.2423L72.7881 55.1984V57.2638C72.3486 57.3517 71.8213 57.3956 70.8984 57.3956C67.8662 57.3956 64.9658 55.3302 64.9658 51.5948V35.0714H61.4502V33.1378H64.9658V27.4249H67.1631V33.1378H72.1729ZM84.5461 57.4835C77.9982 57.4835 73.8234 52.3419 73.8234 45.1788C73.8234 38.0157 78.1301 32.7863 84.1066 32.7863C89.424 32.7863 94.1262 37.049 94.1262 44.3878V45.6183H76.0646C76.1525 51.3751 79.3605 55.462 84.5461 55.462C88.2814 55.462 90.3469 53.3087 91.1818 51.7706H93.5549C92.5441 54.7589 89.3361 57.4835 84.5461 57.4835ZM76.1086 43.6407H91.885C91.885 38.6749 88.5451 34.8077 84.1066 34.8077C79.6682 34.8077 76.3723 38.6969 76.1086 43.6407ZM97.4027 33.1378L103.819 43.5968L110.279 33.1378H112.828L105.181 45.047L112.828 57.0001H110.279L103.819 46.7609L97.4027 57.0001H94.8539L102.412 45.047L94.8539 33.1378H97.4027ZM124.234 33.1378V35.0714H119.224V51.1554C119.224 54.0558 121.07 55.2423 123.135 55.2423L124.849 55.1984V57.2638C124.41 57.3517 123.882 57.3956 122.96 57.3956C119.927 57.3956 117.027 55.3302 117.027 51.5948V35.0714H113.511V33.1378H117.027V27.4249H119.224V33.1378H124.234ZM144.806 57.4835C137.862 57.4835 133.38 52.5616 133.38 45.1788C133.38 37.7521 137.862 32.8302 144.806 32.8302C151.793 32.8302 156.231 37.7521 156.231 45.1788C156.231 52.5616 151.793 57.4835 144.806 57.4835ZM144.85 53.0011C148.673 53.0011 150.562 49.5294 150.562 45.1349C150.562 40.7843 148.673 37.2687 144.85 37.2687C140.938 37.2687 139.049 40.7843 139.049 45.1349C139.049 49.5294 140.938 53.0011 144.85 53.0011ZM178.361 33.1378L169.835 57.0001H163.683L155.157 33.1378H161.134L166.627 50.8917H166.891L172.428 33.1378H178.361ZM188.932 57.4835C181.725 57.4835 177.33 52.6935 177.33 45.2228C177.33 37.84 181.813 32.8302 188.624 32.8302C194.469 32.8302 199.523 36.4777 199.523 44.8712V46.629H182.868C182.933 50.694 185.329 53.089 188.976 53.089C191.437 53.089 193.107 52.0343 193.81 50.6281H199.303C198.292 54.7589 194.469 57.4835 188.932 57.4835ZM182.912 42.8058H194.162C194.118 39.5538 191.964 37.1808 188.712 37.1808C185.329 37.1808 183.087 39.7516 182.912 42.8058ZM201.173 57.0001V33.1378H206.623V37.0929H206.886C207.721 34.3683 210.05 32.7863 212.775 32.7863C213.39 32.7863 214.269 32.8302 214.796 32.9181V38.1036C214.313 37.9279 213.127 37.7521 212.204 37.7521C209.084 37.7521 206.798 39.9054 206.798 42.9376V57.0001H201.173ZM228.84 33.1378V37.4445H223.918V57.0001H218.293V37.4445H214.733V33.1378H218.293V30.8527C218.293 26.1945 221.193 23.6896 225.763 23.6896C227.082 23.6896 228.268 23.8214 229.323 24.0411V28.4796C228.4 28.3478 227.697 28.3038 227.302 28.3038C225.016 28.3038 223.918 29.2267 223.918 31.38V33.1378H228.84ZM235.764 25.1837V57.0001H230.139V25.1837H235.764ZM248.84 57.4835C241.897 57.4835 237.414 52.5616 237.414 45.1788C237.414 37.7521 241.897 32.8302 248.84 32.8302C255.827 32.8302 260.266 37.7521 260.266 45.1788C260.266 52.5616 255.827 57.4835 248.84 57.4835ZM248.884 53.0011C252.707 53.0011 254.597 49.5294 254.597 45.1349C254.597 40.7843 252.707 37.2687 248.884 37.2687C244.973 37.2687 243.083 40.7843 243.083 45.1349C243.083 49.5294 244.973 53.0011 248.884 53.0011ZM266.223 57.0001L259.455 33.1378H265.168L269.387 49.9249H269.607L273.87 33.1378H279.538L283.845 49.837H284.065L288.24 33.1378H293.953L287.185 57.0001H281.34L276.858 40.8282H276.55L272.068 57.0001H266.223Z" fill="black"/>
</svg>
